<svg width="192" height="48" viewBox="0 0 192 48" fill="none" xmlns="http://www.w3.org/2000/svg">
<rect width="48" height="48" rx="24" fill="white"/>
<path d="M19.7058 22.5122L24.9274 22.5122L28.6571 22.5122L27.6413 17.9694L33.3809 33.514L35.0549 39.7319L30.272 41.6451H23.6954L12.4553 40.9277V36.6179L19.9885 17.9694L19.2795 21.9794L19.7058 22.5122Z" fill="#2E5280"/>
<path d="M13.0125 36.8047C12.2409 38.5727 13.5368 40.5519 15.4659 40.5519H31.7063C33.6353 40.5517 34.9305 38.5727 34.1588 36.8047L28.3818 23.5674H18.7904L13.0125 36.8047ZM28.1317 17.2309C28.1317 18.0906 28.3097 18.9409 28.6536 19.7287L35.7941 36.0912C37.0801 39.0378 34.9213 42.336 31.7063 42.3361H15.4659C12.2508 42.3361 10.0913 39.0378 11.3772 36.0912L18.5186 19.7287C18.8624 18.9409 19.0396 18.0905 19.0396 17.2309V10.6401C16.4624 9.86876 16.9863 6.00029 19.7392 6H27.4321C30.1853 6.00005 30.7093 9.86889 28.1317 10.6401V17.2309ZM20.8239 17.2309C20.8239 18.3363 20.5961 19.4301 20.1539 20.4431L19.5693 21.7831H27.6029L27.0183 20.4431C26.5761 19.4301 26.3474 18.3363 26.3474 17.2309V10.5277C26.3476 9.78118 26.8541 9.12985 27.5776 8.94561L27.6944 8.90466C28.2325 8.65493 28.0827 7.78431 27.4321 7.78427H19.7392C19.0456 7.78456 18.9216 8.77423 19.5937 8.94561C20.3172 9.12985 20.8238 9.78117 20.8239 10.5277V17.2309Z" fill="#2E5280"/>
<rect x="17.7517" y="32.0851" width="2.54398" height="2.54398" rx="1.27199" fill="white" stroke="white" stroke-width="2"/>
<rect x="26.2234" y="26.2964" width="1.16404" height="1.16404" rx="0.582018" fill="white" stroke="white" stroke-width="1.16404"/>
<rect x="28.4237" y="36.3044" width="1.35074" height="1.35074" rx="0.675368" fill="white" stroke="white" stroke-width="1.35074"/>
<path d="M72.8085 14.1249H75.8908V27.5184C75.8908 28.9435 75.5561 30.2063 74.8866 31.3067C74.2171 32.4005 73.2758 33.2622 72.0627 33.8919C70.8497 34.515 69.4278 34.8266 67.7971 34.8266C66.173 34.8266 64.7545 34.515 63.5414 33.8919C62.3283 33.2622 61.3871 32.4005 60.7176 31.3067C60.048 30.2063 59.7133 28.9435 59.7133 27.5184V14.1249H62.7857V27.2698C62.7857 28.1912 62.9879 29.0098 63.3923 29.7257C63.8033 30.4417 64.3833 31.0051 65.1323 31.4161C65.8814 31.8204 66.7696 32.0226 67.7971 32.0226C68.8312 32.0226 69.7228 31.8204 70.4718 31.4161C71.2275 31.0051 71.8042 30.4417 72.2019 29.7257C72.6063 29.0098 72.8085 28.1912 72.8085 27.2698V14.1249ZM82.4956 14.1249L87.3678 22.0894H87.5269L92.399 14.1249H95.9587L89.6149 24.3067L95.9984 34.4885H92.4189L87.5269 26.6334H87.3678L82.4757 34.4885H78.8962L85.3891 24.3067L78.9359 14.1249H82.4956ZM99.0063 34.4885V14.1249H102.079V31.8436H111.306V34.4885H99.0063ZM119.017 34.8266C118.049 34.8266 117.174 34.6476 116.392 34.2897C115.61 33.9251 114.99 33.3981 114.533 32.7087C114.082 32.0193 113.856 31.1741 113.856 30.1732C113.856 29.3114 114.022 28.6022 114.354 28.0453C114.685 27.4885 115.132 27.0477 115.696 26.7229C116.259 26.3981 116.889 26.1528 117.585 25.9871C118.281 25.8214 118.99 25.6954 119.713 25.6093C120.628 25.5032 121.37 25.417 121.94 25.3507C122.51 25.2778 122.925 25.1618 123.183 25.0027C123.442 24.8436 123.571 24.5851 123.571 24.2272V24.1576C123.571 23.2892 123.326 22.6164 122.835 22.1391C122.351 21.6618 121.629 21.4232 120.667 21.4232C119.667 21.4232 118.878 21.6452 118.301 22.0894C117.731 22.5269 117.337 23.0141 117.118 23.551L114.324 22.9147C114.655 21.9866 115.139 21.2376 115.775 20.6675C116.418 20.0908 117.158 19.6732 117.993 19.4147C118.828 19.1495 119.706 19.0169 120.628 19.0169C121.238 19.0169 121.884 19.0899 122.567 19.2357C123.256 19.3749 123.899 19.6334 124.496 20.0113C125.099 20.3891 125.593 20.9293 125.977 21.632C126.362 22.328 126.554 23.2328 126.554 24.3465V34.4885H123.65V32.4005H123.531C123.339 32.7849 123.051 33.1628 122.666 33.534C122.282 33.9052 121.788 34.2134 121.185 34.4587C120.581 34.704 119.859 34.8266 119.017 34.8266ZM119.663 32.4402C120.485 32.4402 121.188 32.2778 121.771 31.953C122.361 31.6282 122.809 31.204 123.114 30.6803C123.425 30.15 123.581 29.5832 123.581 28.98V27.0113C123.475 27.1173 123.269 27.2167 122.964 27.3095C122.666 27.3957 122.325 27.472 121.94 27.5382C121.556 27.5979 121.181 27.6542 120.817 27.7073C120.452 27.7537 120.147 27.7934 119.902 27.8266C119.325 27.8995 118.798 28.0221 118.321 28.1945C117.85 28.3668 117.472 28.6154 117.187 28.9402C116.909 29.2584 116.77 29.6827 116.77 30.213C116.77 30.9488 117.042 31.5056 117.585 31.8834C118.129 32.2546 118.821 32.4402 119.663 32.4402ZM130.752 34.4885V14.1249H133.725V21.6917H133.904C134.077 21.3735 134.325 21.0056 134.65 20.588C134.975 20.1703 135.426 19.8058 136.002 19.4942C136.579 19.176 137.341 19.0169 138.289 19.0169C139.522 19.0169 140.623 19.3285 141.59 19.9516C142.558 20.5747 143.317 21.4729 143.867 22.6462C144.424 23.8195 144.703 25.2314 144.703 26.882C144.703 28.5326 144.428 29.9478 143.877 31.1277C143.327 32.301 142.571 33.2059 141.61 33.8422C140.649 34.472 139.552 34.7868 138.319 34.7868C137.391 34.7868 136.632 34.631 136.042 34.3195C135.459 34.0079 135.001 33.6434 134.67 33.2257C134.339 32.8081 134.083 32.4369 133.904 32.1121H133.656V34.4885H130.752ZM133.666 26.8522C133.666 27.926 133.821 28.8673 134.133 29.676C134.445 30.4847 134.895 31.1178 135.485 31.5752C136.075 32.0259 136.798 32.2513 137.653 32.2513C138.541 32.2513 139.284 32.016 139.88 31.5453C140.477 31.0681 140.928 30.4218 141.232 29.6064C141.544 28.7911 141.7 27.873 141.7 26.8522C141.7 25.8446 141.547 24.9398 141.242 24.1377C140.944 23.3356 140.493 22.7025 139.89 22.2385C139.294 21.7745 138.548 21.5425 137.653 21.5425C136.791 21.5425 136.062 21.7646 135.465 22.2087C134.875 22.6528 134.428 23.2726 134.123 24.0681C133.818 24.8635 133.666 25.7916 133.666 26.8522ZM148.28 34.4885V14.1249H155.538C157.122 14.1249 158.435 14.4132 159.476 14.9899C160.516 15.5666 161.295 16.3555 161.812 17.3564C162.329 18.3507 162.588 19.471 162.588 20.7172C162.588 21.9701 162.326 23.097 161.802 24.0979C161.285 25.0922 160.503 25.881 159.456 26.4644C158.415 27.0411 157.106 27.3294 155.528 27.3294H150.537V24.7243H155.25C156.251 24.7243 157.063 24.552 157.686 24.2073C158.309 23.8559 158.766 23.3787 159.058 22.7755C159.35 22.1722 159.496 21.4862 159.496 20.7172C159.496 19.9483 159.35 19.2655 159.058 18.6689C158.766 18.0723 158.306 17.605 157.676 17.2669C157.053 16.9289 156.231 16.7598 155.21 16.7598H151.352V34.4885H148.28ZM165.951 34.4885V19.2158H168.825V21.6419H168.984C169.262 20.82 169.753 20.1737 170.455 19.703C171.165 19.2257 171.967 18.9871 172.862 18.9871C173.047 18.9871 173.266 18.9937 173.518 19.007C173.777 19.0202 173.979 19.0368 174.125 19.0567V21.9005C174.005 21.8673 173.793 21.8309 173.488 21.7911C173.183 21.7447 172.878 21.7215 172.573 21.7215C171.871 21.7215 171.244 21.8706 170.694 22.1689C170.151 22.4606 169.72 22.8683 169.402 23.3919C169.083 23.909 168.924 24.4989 168.924 25.1618V34.4885H165.951ZM182.584 34.7968C181.152 34.7968 179.902 34.4686 178.835 33.8124C177.768 33.1561 176.939 32.2381 176.349 31.0581C175.759 29.8782 175.464 28.4994 175.464 26.9218C175.464 25.3375 175.759 23.9521 176.349 22.7655C176.939 21.579 177.768 20.6576 178.835 20.0013C179.902 19.3451 181.152 19.0169 182.584 19.0169C184.015 19.0169 185.265 19.3451 186.332 20.0013C187.399 20.6576 188.228 21.579 188.818 22.7655C189.408 23.9521 189.703 25.3375 189.703 26.9218C189.703 28.4994 189.408 29.8782 188.818 31.0581C188.228 32.2381 187.399 33.1561 186.332 33.8124C185.265 34.4686 184.015 34.7968 182.584 34.7968ZM182.594 32.301C183.522 32.301 184.291 32.0558 184.9 31.5652C185.51 31.0747 185.961 30.4218 186.253 29.6064C186.551 28.7911 186.7 27.8929 186.7 26.9118C186.7 25.9374 186.551 25.0425 186.253 24.2272C185.961 23.4052 185.51 22.7456 184.9 22.2485C184.291 21.7513 183.522 21.5027 182.594 21.5027C181.659 21.5027 180.883 21.7513 180.267 22.2485C179.657 22.7456 179.203 23.4052 178.905 24.2272C178.613 25.0425 178.467 25.9374 178.467 26.9118C178.467 27.8929 178.613 28.7911 178.905 29.6064C179.203 30.4218 179.657 31.0747 180.267 31.5652C180.883 32.0558 181.659 32.301 182.594 32.301Z" fill="white"/>
</svg>
