<svg width="55" height="55" viewBox="0 0 55 55" fill="none" xmlns="http://www.w3.org/2000/svg">
<rect x="3.5" y="3.5" width="48" height="48" rx="24" fill="white"/>
<path d="M23.6198 25.0529L28.8415 25.0529L32.5712 25.0529L31.5554 20.5101L37.295 36.0548L38.969 42.2726L34.186 44.1858H27.6094L16.3694 43.4684V39.1586L23.9026 20.5101L23.1936 24.5201L23.6198 25.0529Z" fill="#2E5280"/>
<path d="M16.9266 39.3454C16.155 41.1134 17.4509 43.0926 19.3799 43.0926H35.6204C37.5494 43.0924 38.8445 41.1134 38.0729 39.3454L32.2958 26.1081H22.7045L16.9266 39.3454ZM32.0458 19.7717C32.0458 20.6313 32.2238 21.4816 32.5676 22.2695L39.7082 38.6319C40.9941 41.5785 38.8354 44.8767 35.6204 44.8768H19.3799C16.1649 44.8768 14.0054 41.5785 15.2913 38.6319L22.4327 22.2695C22.7765 21.4816 22.9537 20.6312 22.9537 19.7717V13.1808C20.3765 12.4095 20.9003 8.541 23.6533 8.54071H31.3462C34.0994 8.54076 34.6233 12.4096 32.0458 13.1808V19.7717ZM24.7379 19.7717C24.7379 20.877 24.5101 21.9708 24.068 22.9839L23.4834 24.3238H31.5169L30.9323 22.9839C30.4902 21.9708 30.2615 20.877 30.2615 19.7717V13.0685C30.2616 12.3219 30.7682 11.6706 31.4917 11.4863L31.6084 11.4454C32.1465 11.1956 31.9968 10.325 31.3462 10.325H23.6533C22.9597 10.3253 22.8357 11.3149 23.5078 11.4863C24.2313 11.6706 24.7378 12.3219 24.7379 13.0685V19.7717Z" fill="#2E5280"/>
<rect x="21.6658" y="34.6258" width="2.54398" height="2.54398" rx="1.27199" fill="white" stroke="white" stroke-width="2"/>
<rect x="30.1374" y="28.8371" width="1.16404" height="1.16404" rx="0.582018" fill="white" stroke="white" stroke-width="1.16404"/>
<rect x="32.3377" y="38.8451" width="1.35074" height="1.35074" rx="0.675368" fill="white" stroke="white" stroke-width="1.35074"/>
</svg>
