<svg width="40" height="40" viewBox="0 0 40 40" fill="none" xmlns="http://www.w3.org/2000/svg">
<rect width="40" height="40" rx="20" fill="white"/>
<path d="M16.9384 18.1599L21.0999 18.1599L24.0725 18.1599L23.2629 14.5393L27.8372 26.9281L29.1714 31.8837L25.3594 33.4084H20.118L11.1599 32.8367V29.4019L17.1638 14.5393L16.5987 17.7352L16.9384 18.1599Z" fill="#2E5280"/>
<path d="M11.6039 29.5508C10.989 30.9599 12.0218 32.5372 13.5592 32.5372H26.5026C28.0399 32.5371 29.0721 30.9598 28.4572 29.5508L23.8529 19.0009H16.2088L11.6039 29.5508ZM23.6537 13.9509C23.6537 14.636 23.7955 15.3136 24.0696 15.9416L29.7605 28.9821C30.7853 31.3305 29.0649 33.9591 26.5026 33.9592H13.5592C10.9969 33.9592 9.2758 31.3305 10.3006 28.9821L15.9922 15.9416C16.2662 15.3137 16.4074 14.6359 16.4074 13.9509V8.6981C14.3534 8.08333 14.771 5.00023 16.965 5H23.0961C25.2904 5.00004 25.7079 8.08344 23.6537 8.6981V13.9509ZM17.8295 13.9509C17.8295 14.8318 17.6479 15.7035 17.2955 16.5109L16.8296 17.5788H23.2322L22.7663 16.5109C22.4139 15.7035 22.2316 14.8318 22.2316 13.9509V8.60853C22.2317 8.01353 22.6354 7.49443 23.2121 7.3476L23.3051 7.31496C23.734 7.11593 23.6146 6.42207 23.0961 6.42203H16.965C16.4122 6.42226 16.3134 7.21101 16.849 7.3476C17.4257 7.49443 17.8294 8.01353 17.8295 8.60853V13.9509Z" fill="#2E5280"/>
<rect x="15.4895" y="25.8977" width="1.81073" height="1.81073" rx="0.905366" fill="white" stroke="white" stroke-width="1.81073"/>
<rect x="22.1327" y="21.1759" width="0.927715" height="0.927715" rx="0.463857" fill="white" stroke="white" stroke-width="0.927715"/>
<rect x="23.8864" y="29.152" width="1.07651" height="1.07651" rx="0.538256" fill="white" stroke="white" stroke-width="1.07651"/>
</svg>
